<?xml version="1.0" standalone="no"?>
<!DOCTYPE svg PUBLIC "-//W3C//DTD SVG 20010904//EN"
 "http://www.w3.org/TR/2001/REC-SVG-20010904/DTD/svg10.dtd">
<svg version="1.0" xmlns="http://www.w3.org/2000/svg"
 width="512.000000pt" height="512.000000pt" viewBox="0 0 512.000000 512.000000"
 preserveAspectRatio="xMidYMid meet">
<metadata>
Created by potrace 1.16, written by Peter Selinger 2001-2019
</metadata>
<g transform="translate(0.000000,512.000000) scale(0.100000,-0.100000)"
fill="#000000" stroke="none">
<path d="M2220 5105 c-684 -117 -1259 -599 -1505 -1260 -112 -302 -150 -660
-96 -915 132 -627 746 -1605 1687 -2685 206 -237 204 -235 254 -235 50 0 48
-2 254 235 820 941 1422 1851 1621 2448 69 207 88 315 88 497 1 805 -525 1548
-1291 1826 -111 40 -255 78 -359 93 -100 15 -559 12 -653 -4z m592 -170 c585
-88 1082 -447 1348 -974 150 -298 219 -710 166 -986 -108 -559 -685 -1479
-1594 -2544 -90 -105 -167 -191 -172 -191 -11 0 -301 340 -489 574 -644 802
-1050 1451 -1219 1951 -58 172 -75 274 -74 435 8 862 653 1599 1519 1734 123
19 390 20 515 1z"/>
<path d="M2399 3925 c-274 -62 -486 -253 -574 -520 -35 -104 -45 -283 -22
-392 34 -158 98 -273 217 -393 92 -92 184 -148 315 -192 61 -20 89 -23 225
-23 136 0 164 3 225 23 131 44 223 100 315 192 158 159 230 329 230 550 0 351
-230 650 -575 747 -76 21 -277 26 -356 8z m283 -180 c196 -41 372 -197 437
-386 28 -81 38 -217 22 -301 -42 -218 -220 -406 -438 -462 -77 -20 -212 -20
-286 -1 -166 43 -312 162 -385 315 -51 107 -67 186 -59 298 8 112 37 197 101
291 136 200 374 296 608 246z"/>
</g>
</svg>
