<?xml version="1.0" standalone="no"?>
<!DOCTYPE svg PUBLIC "-//W3C//DTD SVG 20010904//EN"
 "http://www.w3.org/TR/2001/REC-SVG-20010904/DTD/svg10.dtd">
<svg version="1.0" xmlns="http://www.w3.org/2000/svg"
 width="512.000000pt" height="512.000000pt" viewBox="0 0 512.000000 512.000000"
 preserveAspectRatio="xMidYMid meet">
<metadata>
Created by potrace 1.16, written by Peter Selinger 2001-2019
</metadata>
<g transform="translate(0.000000,512.000000) scale(0.100000,-0.100000)"
fill="#000000" stroke="none">
<path d="M2046 4789 c-316 -41 -661 -171 -927 -348 -402 -268 -703 -664 -853
-1122 -79 -240 -106 -412 -106 -679 0 -269 27 -443 107 -684 215 -647 727
-1159 1372 -1370 237 -77 423 -106 683 -106 348 0 637 66 943 215 124 60 305
169 305 184 0 4 -27 33 -59 65 l-59 58 -43 -29 c-186 -127 -454 -238 -684
-283 -60 -11 -121 -23 -134 -26 -18 -4 10 30 105 128 108 112 358 407 351 415
-2 1 -52 -1 -113 -4 l-110 -6 -69 -85 c-39 -47 -133 -149 -210 -226 l-140
-141 -5 298 -5 297 -78 50 -77 49 0 -342 -1 -342 -80 85 c-118 124 -277 325
-385 485 l-94 140 78 12 c42 6 148 17 235 24 86 6 157 15 157 19 0 3 -12 17
-26 31 -14 13 -42 46 -62 73 l-36 49 -100 -7 c-56 -3 -154 -14 -218 -24 l-117
-18 -54 115 c-78 167 -129 311 -172 491 -21 89 -55 287 -55 320 0 6 110 11
301 12 l300 3 34 78 34 77 -340 0 -339 0 5 83 c16 220 63 444 128 614 61 157
109 253 126 253 9 0 54 -7 101 -15 110 -19 325 -42 468 -50 l112 -7 0 -278 0
-278 79 52 80 51 0 228 1 227 68 0 c96 0 304 18 454 38 l127 18 42 -90 c55
-119 91 -205 118 -289 21 -63 26 -69 64 -84 23 -10 66 -30 96 -45 29 -15 57
-28 61 -28 19 0 -75 282 -153 459 -26 57 -44 107 -42 111 3 4 22 11 42 15 81
15 349 98 468 144 l124 48 63 -88 c198 -279 317 -576 362 -898 9 -62 16 -130
16 -151 l0 -40 -256 0 c-201 0 -255 -3 -251 -12 3 -7 17 -43 32 -80 l27 -68
226 0 225 0 -6 -82 c-16 -208 -72 -426 -162 -637 l-57 -133 58 -59 c32 -32 61
-59 65 -59 11 0 116 231 152 336 46 132 82 283 101 422 21 148 21 436 0 584
-134 975 -906 1737 -1884 1858 -100 12 -435 11 -534 -1z m-107 -306 c-158
-162 -278 -310 -396 -485 -46 -71 -90 -128 -96 -128 -46 0 -519 140 -540 160
-12 10 140 148 248 225 189 135 402 239 615 300 92 26 238 58 294 64 5 1 -51
-61 -125 -136z m766 112 c361 -73 704 -247 958 -485 l82 -78 -40 -16 c-81 -34
-304 -105 -430 -136 -125 -32 -129 -32 -142 -14 -7 11 -63 93 -123 184 -111
169 -238 334 -345 450 -102 111 -109 120 -95 120 7 0 68 -11 135 -25z m-470
-823 c-11 -11 -454 31 -567 54 l-27 5 26 42 c112 176 367 478 504 599 l64 56
3 -375 c1 -207 0 -378 -3 -381z m438 445 c56 -70 143 -189 194 -265 l92 -137
-82 -12 c-112 -16 -323 -33 -408 -33 l-69 0 0 378 1 377 85 -90 c47 -49 131
-147 187 -218z m-1802 -358 c115 -43 248 -84 380 -119 61 -16 113 -31 115 -33
2 -2 -14 -43 -37 -91 -22 -48 -60 -146 -84 -219 -65 -200 -85 -305 -111 -609
l-6 -68 -399 0 -399 0 0 40 c0 21 7 89 16 151 44 320 164 618 359 894 33 47
65 85 71 85 5 0 48 -14 95 -31z m279 -1396 c33 -271 116 -557 230 -795 l37
-78 -41 -10 c-172 -44 -352 -99 -467 -143 l-135 -53 -56 76 c-163 222 -290
499 -344 752 -18 85 -44 269 -44 316 l0 32 404 0 404 0 12 -97z m410 -1125
c115 -190 285 -415 441 -583 44 -48 78 -89 76 -92 -3 -3 -55 5 -116 16 -324
62 -603 188 -866 390 -88 67 -197 173 -188 182 23 22 534 178 583 178 8 0 40
-41 70 -91z"/>
<path d="M2710 3101 c-174 -38 -321 -119 -445 -245 -83 -84 -137 -163 -182
-266 -59 -136 -68 -188 -67 -370 0 -158 1 -169 32 -260 91 -271 338 -497 637
-582 65 -18 104 -22 205 -22 143 1 237 22 351 77 l69 33 94 -96 c74 -73 93
-98 86 -110 -5 -8 -10 -28 -10 -45 0 -26 61 -91 483 -513 550 -550 533 -537
677 -537 100 0 154 20 223 84 65 60 98 140 98 238 0 139 6 132 -540 677 l-479
479 -50 -5 -50 -5 -88 88 -87 87 31 74 c49 119 65 207 64 353 0 139 -16 223
-66 345 -99 247 -322 442 -582 511 -114 30 -292 35 -404 10z m355 -175 c33 -9
98 -35 145 -58 114 -57 236 -177 297 -293 64 -123 87 -217 87 -355 -1 -98 -5
-127 -28 -195 -36 -105 -81 -178 -158 -253 -172 -168 -340 -246 -533 -246
-381 0 -698 322 -698 709 0 121 19 201 72 310 107 217 302 359 546 399 53 8
208 -2 270 -18z m610 -1476 l-50 -50 -85 85 -84 85 49 50 50 50 85 -85 85 -85
-50 -50z m1100 -897 c23 -48 19 -112 -9 -154 -28 -40 -79 -69 -123 -69 -65 1
-106 36 -533 464 l-425 426 110 110 110 110 427 -427 c236 -236 435 -442 443
-460z"/>
</g>
</svg>
